<svg xmlns="http://www.w3.org/2000/svg" viewBox="0 0 806.29 186.48"><defs><style>.cls-1{fill:#5956a5;stroke:#5956a5;stroke-miterlimit:10;stroke-width:0.25px;}</style></defs><g id="Layer_2" data-name="Layer 2"><g id="Artwork"><g id="Waves"><path class="cls-1" d="M583,172.24c-24.58,0-33.57-50.36-37.9-67.63-7-27.87-5.2-62.44-21-87.2s-42-19.12-58.05,2.46c-16.37,22.05-20.92,52.69-42.65,70.86,15.72-18.18,23.77-39.24,35.63-60.3,11.67-20.72,36.66-43,58.68-21.55,19.48,19,18.64,51.09,23.33,76,4.62,24.49,10.53,54.55,24.71,75.55,33.12,49.07,77.43-71.52,87.9-90.49,10.84-19.66,32-33.53,45.89-7.16,11.56,21.95,2.09,53.67,20.4,72.44,10.52,10.77,24.39,8,30.77-5.11,5.37-11.06,4.61-24.2,11.57-34.66,20.17-30.29,29.2,25.85,44,29.75-15.79-1.25-14.25-27.42-24.58-35.39-16.47-12.74-24.18,17.54-26.77,27.93-4.21,17-18.18,35.11-35.18,17.68-13.17-13.49-11.7-35.76-14.64-53C702.68,68.36,694.57,44.13,675.73,48c-15.44,3.15-23.57,24.84-29.34,37.18-8.25,17.63-15.33,35.89-25.27,52.68-7.57,12.8-21,34.4-38.16,34.4Z"/><path class="cls-1" d="M579.14,168.06c-23.62,0-32.57-48-36.88-64.62-6.93-26.72-5.33-60.69-21.64-83.94-15.81-22.56-40.07-15.4-55.09,4.12-16.2,21.08-22.34,50.72-44.07,67.43,15.35-16.52,24.23-35.64,35.73-55.28,10-17.15,30.1-40.78,52.17-27.68,20.59,12.23,23.06,41,26.39,62.13,4.19,26.52,10.65,54.14,22.36,78.46C588.4,211.57,634,96.46,645.5,74.49c10.39-19.78,31-38.42,47.18-11.34,12.71,21.25,4.37,54.57,24.75,71.44,28.52,23.62,32.3-25.22,42.57-39.2,21.13-28.78,28.71,25.69,45.1,28.61-16.21-.69-15-27.92-27-34.54-15.49-8.53-22.72,15.2-25.85,25.72-4.57,15.37-15.41,34-33.61,20.82-14.88-10.75-15.47-32.85-18.57-49.18-2.63-13.84-8.45-35.15-25.37-37.45-16-2.18-25.26,17.83-31.06,29.37-8.55,17-15.41,34.77-24.69,51.37-7.64,13.66-21.62,37.95-39.83,37.95Z"/><path class="cls-1" d="M575.33,163.88c-22.53,0-31.61-45.73-35.89-61.61-6.86-25.49-5.54-58.36-22-80.09-38.29-50.55-74.35,52.63-97.91,69.19,16-16,25.45-34.79,38-53.93C467.89,21.49,487.2-.18,508,12.77c21.65,13.51,22.36,44.78,26.62,67.05,4.47,23.38,10.74,49.63,22.92,70.36,30.13,51.27,73.64-60.67,84.18-79.21,4.42-7.76,10.32-17.48,19.63-19.9,11.91-3.1,21.89,7.24,26.94,16.79,10.38,19.62,6.32,48.15,24,63.84,10.23,9.1,23.52,7.66,30.89-3.9,6.63-10.4,7-24,15.39-33.42,21.39-24,28.84,25.45,45.45,28.43-16.55-.09-15.77-27.56-29-33.34-16.25-7.08-23,17.9-26.93,28.32-6,15.87-20.14,28.18-36,14.12-12.82-11.4-14.14-31.23-18-46.79C690.69,72,683.73,53,667.86,51c-15.54-2-24.28,16.62-30.07,27.92-8.61,16.78-15.54,34.43-25.09,50.72-7.37,12.58-20.49,34.28-37.37,34.28Z"/><path class="cls-1" d="M571.52,159.7c-21.63,0-30.62-43.37-34.9-58.62-6.7-23.91-5.91-54.89-21.63-75.17-36.44-47-73.43,50.5-97.4,65.79,17-15,27-33.9,40.3-52.44C469.82,22.67,491,2.63,510.75,20.79,528,36.65,528.21,63.91,532.93,85.2c4.65,21,10.74,52,26.28,68.12,31.44,32.54,68.72-71,79.93-87.41,14.79-21.64,35.71-13.13,45.34,8.21,8.46,18.73,8.17,50.05,29.91,59.63,28.42,12.53,28.92-30.25,44.47-41.71,20.85-15.36,27.3,26.32,43.93,29.59-15,.5-17.23-23.46-27.75-30.14-14.84-9.44-24.12,10.37-28.68,21.28-6.21,14.84-17.4,30.64-35.22,19.55-14.35-8.93-17.42-28.26-21.76-43.13-3.94-13.48-9.91-31.37-25.08-35.93-16.54-5-26.1,13.81-32.38,25.76-8.36,15.92-15.14,32.68-24.39,48.13-7.19,12-19.87,32.55-36,32.55Z"/><path class="cls-1" d="M567.7,155.52c-20.89,0-30.12-42.25-34.4-57.25-6.33-22.21-6-51.32-21.57-69.65C495.79,9.86,475.82,21,462.59,36.5c-15.33,18-25.79,43.4-46.93,55.52,16.28-13.65,27.11-30.32,40.13-47.48C466.74,30.11,485.18,8.89,505,22c18.11,12,19.83,37.77,23.87,57,4.57,21.72,10.84,48.59,24.14,66.85,29.59,40.67,69-63.13,80.09-79.06,15.23-21.81,36.21-10.9,46.1,9.82,8.5,17.79,10.52,46.73,31.5,55.23,28.14,11.4,29.4-28.7,46.12-39.47,22-14.19,26.7,26.32,44.86,28.13-14.65,1-18.31-21.91-28.68-28.29-14.45-8.92-24.18,8.5-29.55,19.41-6.84,13.9-16.93,28.17-34.44,19.69-15-7.24-19.6-25.76-24.51-40.15-4.55-13.34-10.58-29.9-24.88-35.55-15.73-6.23-25.3,8.85-31.91,20.66-8.59,15.35-15.29,31.69-24.3,46.81-7.12,11.95-19.64,32.49-35.66,32.49Z"/><path class="cls-1" d="M563.88,151.34c-20,0-29.17-40-33.44-54.26-6.39-21.34-6.33-50.84-23.38-67.12-17.95-17.13-37.05.71-49.29,15.12C444.23,61,433,82.52,413.73,92.34c15.57-11.21,26.34-25.72,38.45-40.87,10.93-13.69,29.11-37.63,49.3-26.11s21.18,40.87,26.24,60.89c4.64,18.32,10.94,46.4,25.29,59.9,30.5,28.69,64.7-71,79-84.67,17.68-16.87,36.14,5.1,43.54,20.82,8,17,13.34,44.39,35.24,48.68,25.55,5,26.54-28.83,43.77-38.4,22.65-12.59,26.84,25.8,45.91,26.68-14.87,1.6-19.41-21.35-30.75-27.07-12.75-6.43-22,5.7-27.72,15.45-6.37,10.75-12.74,24.39-27.37,24.08-17-.37-26.28-17.73-32-31.35-6.22-14.91-11.53-33.85-27-41.94C641.34,51,631.24,60.88,624,72.7c-9.13,14.89-15.78,31.16-24.74,46.15-7,11.8-19.45,32.49-35.37,32.49Z"/><path class="cls-1" d="M560.06,147.16c-19,0-28.24-37.68-32.56-51.39C521.28,76,520.83,48.83,504.71,34c-16.92-15.62-34.26.16-46.43,13.34-14.19,15.38-26.75,36.54-46.49,45.36,16.78-10.85,28.48-25.61,41.9-40.7C465,39.21,482.31,18.44,501.07,30.64,518.93,42.26,520.12,68.45,525.21,87a242.73,242.73,0,0,0,11.24,32c3.76,8.72,8.27,22.08,17.65,26.46,18.81,8.78,36.61-23.32,43.74-35.95C606.36,94.43,614.45,67,631,58.72c18.49-9.2,33.85,14.38,40.6,27.8,8.23,16.36,16.89,42.56,39.3,42.76s24.34-27.81,41.2-36.34C775,81.39,779.71,118,799.32,118.08c-14.22,2.08-20.16-18.63-30.55-24.58-12.63-7.25-22.87,3.34-29.65,13.22C731.24,118.17,723.26,132,707,129.17s-24.67-19.35-31-32.77c-10.89-22.91-34.57-58.34-57.14-24.46-9.06,13.62-15.39,28.92-23.79,42.94-6.94,11.59-19.34,32.28-35,32.28Z"/><path class="cls-1" d="M556.3,143c-17.67,0-26.62-33.52-31-46.28C519,78.42,518.06,53.4,503.67,39.17c-16.46-16.28-33.25-1.2-45.95,11.6-14.48,14.6-28,34.57-47.86,42.21,17.31-10.64,30.22-24.53,44.65-39.34,12-12.27,29.24-31.15,46.86-17,14.87,11.93,16.3,34.27,21.38,51.26a227.55,227.55,0,0,0,12.4,32.27c3.63,7.67,8.09,18.86,17,21.75,18.32,6,34.64-24.22,41.77-36.68,7.73-13.51,16.17-39.46,32-45.6,19.1-7.39,34.56,17.35,42,30.73,8.47,15.21,18.78,36.86,39.26,36.78C728.83,127,732.7,100.75,750,93.06c22.27-9.89,28.5,24.58,48.14,23.83-14.89,2.75-21.85-19.08-33.82-24-11.78-4.79-21.24,4.31-28.12,12.84-8.7,10.81-17,23.7-33,21.31-14.67-2.19-23.79-15.51-30.57-27.4-12.22-21.44-36.84-60.89-59.88-27.13-8.64,12.67-14.85,26.87-22.9,39.9C583.09,123.52,571.21,143,556.3,143Z"/><path class="cls-1" d="M552.47,138.81c-17.11,0-26.92-34-31.31-46.74-5.79-16.74-7.25-39.88-22.39-51.25-16.15-12.14-31,3.45-42.49,14.24C441.78,68.67,427.45,87,407.93,93.3c17.54-8.88,30.67-21.91,45.18-35.62,11.18-10.57,26.28-28.48,43.16-18.9,16.57,9.4,18.51,32.82,23.79,49.16,4.44,13.72,13.25,46.83,29.87,50.33,17.16,3.61,32.25-24,39.14-35.72,7.51-12.73,17.19-40.58,34.41-42.42,19-2,32.5,20.26,41,33.6,9.09,14.3,21.28,33,40.82,31.09,20.85-2,26.06-28.25,45.6-32.47,20.24-4.37,27.21,24,46.1,23.36-14.13,3.15-22.6-16.26-33.59-21.47-11.86-5.63-22.08,2.1-30,10.54-8.58,9.1-16.07,20.23-30,20.47-15,.26-25.93-11.64-33.77-23-11.27-16.34-36.26-60.9-59.64-33.4-9.87,11.6-16,26.45-24,39.29-6.79,10.86-18.74,30.65-33.56,30.66Z"/><path class="cls-1" d="M548.64,134.63c-16,0-25.23-29.9-29.75-41.73-6-15.67-7.89-37.78-22.55-48.21-17.1-12.17-34,8-45.9,18.36C437.11,74.58,423.58,89,406,93.62c16.2-7.08,28.92-17.51,42.55-29.29C460.48,54,477.53,32.89,495,43.54c16,9.72,18,33.26,24.11,49.26,4.52,11.81,13.69,41.42,29.71,41.55,16.44.14,29.67-24.91,36.83-36.74,8.54-14.11,18.42-40.24,39-35,32.2,8.24,41.92,68.74,80.59,59.39,17.67-4.27,25-26,43.23-29.12,20.21-3.41,28.18,23,47.34,21.61-13.73,3.61-22.74-13.62-33.34-19-11.12-5.66-21.25-.94-30,6.53-10.09,8.61-18.25,20.62-32.82,21.07-14.86.45-26.29-10.48-34.85-21.34C652,85.49,626.26,44.08,603.39,70.44c-9.62,11.08-15.68,25.24-23.79,37.4C573,117.68,562.12,134.63,548.64,134.63Z"/><path class="cls-1" d="M544.81,130.45c-14.57,0-23.6-26.14-28.1-36.71-6.22-14.61-8.86-37.13-24-45.81-16.34-9.37-32.23,9.83-43.9,19-13.49,10.57-27.44,23.52-44.76,27C420.2,88,433.13,78.83,447,68c12-9.36,29.12-30,45.87-20.33,19.88,11.54,29,97.35,60.61,79.64,15.46-8.67,24.6-28,33.81-42.31,10.64-16.54,21.4-28.13,41.29-16.18,24.64,14.82,44,66.35,80,48.33,13.72-6.86,22.86-23.18,39.56-24.06,18.84-1,27.95,22.49,46.58,20.23-13.61,4.11-23.53-11.88-34.28-17.17s-21.22-1.72-30.52,4.94c-9.74,7-17.68,17.3-30.14,19.46-14.8,2.58-27.7-6.56-37.36-16.71-13.29-14-39.84-55.7-62.72-35.07-10.24,9.24-16.38,23.69-24,35C569.11,113.45,558.16,130.45,544.81,130.45Z"/><path class="cls-1" d="M541,126.27c-14.5,0-24.51-27.16-29.12-37.87-5.45-12.65-9.27-32.78-24.4-37.82S456,64.5,445,72.2c-13.07,9.16-26.6,19.72-42.85,22.06a150.67,150.67,0,0,0,39-19.7c12.18-8.44,31.54-30.68,48-23.52C504.42,57.69,507.71,79,514,92.43c5.37,11.6,15.55,38.18,32.16,32.43,31.24-10.82,36.5-78.65,77.41-53.79,24.33,14.79,45.13,59.38,79.64,44.87,14.62-6.15,24.8-21.67,41.88-22.3,19-.71,29.68,21.5,48.49,18.51-12.58,4.31-23.45-8.8-33.31-14.22C749,91.76,738,93.85,727.36,100.18c-9.9,5.86-18,15-29.5,17.77-13.32,3.16-26-2.8-36.08-11.14-15.88-13.08-36.09-47.15-60.51-41.26-13.15,3.17-21.21,22.13-28.22,32.35C566.26,107.81,554.7,126.27,541,126.27Z"/><path class="cls-1" d="M537.19,122.1c-12.92,0-22.41-22.37-27.14-31.81-5.81-11.64-9.63-29.38-23.13-34.75C472.1,49.64,455.64,68,444,75.22c-13.47,8.4-27.54,18-43.81,19.36a151.9,151.9,0,0,0,41.92-18.49c11.28-7,27.47-24.59,41.78-21.79,15.15,3,19.82,22.26,25.51,34,5,10.4,15.44,35.37,29.9,33.23,15.27-2.26,26.87-23.77,34.93-35,10.81-15.09,20-25,39-16.12,27.57,12.87,49,56.28,84.45,44,15.85-5.47,27.19-20.29,45.13-20.33,18.75,0,30.67,20.66,49.55,16.85-13.41,5.14-25-8.47-36.14-13.45-10.65-4.75-21.06-3.21-31.33,1.73-11.06,5.31-20.2,14.73-32.63,17-13,2.35-25.4-3.23-35.64-10.84-16.3-12.12-38.41-43.88-62-38.26-11.93,2.84-19.71,19.17-26.31,28.31C561.51,104.76,550.34,122.1,537.19,122.1Z"/><path class="cls-1" d="M533.32,117.92c-12.79,0-23.46-23-28.44-32.41C499.57,75.43,494,59.82,480.47,58.67c-12.8-1.1-29.14,15-39.9,20.91-13.2,7.2-26.9,14.89-42.32,15.32,19.24-2.72,36.52-11.66,53.34-21.89,8.43-5.14,18.24-15.53,28.9-14.61,9,.78,14.95,8.74,19,15.94,7,12.24,19.67,48.35,38.4,42.4,18.28-5.8,27.49-30.16,40.38-42.54,15.47-14.87,37.54,1.65,50.83,12,16.18,12.66,33.21,29.86,55.53,28,19-1.57,32.44-18.22,51.74-19.6,19.92-1.43,35.64,21.2,54.81,15.11-13.29,5.63-25.71-6.67-37.07-11.6-11.1-4.81-22.28-3.68-33.29.79s-20.36,12.86-32.34,15c-13.33,2.44-26.07-2.73-37-10-16.87-11.19-41.94-42.35-65.12-35.12-10.75,3.36-18.27,18.37-24.84,26.65-6.38,8.05-16.65,22.35-28.21,22.35Z"/><path class="cls-1" d="M529.46,113.74c-12.12,0-22.87-20.51-28.22-29.3-6.55-10.77-14.57-25.25-29.59-20.1-6.14,2.11-11.52,7-17.07,10.29A255.71,255.71,0,0,1,431,86.42c-11,5-22.43,9.15-34.66,8.8,17.95-2,33.91-8.07,50.29-16.55,17.64-9.13,33.46-25.6,49-4,8.35,11.6,20.22,43.16,38.22,38,19.21-5.53,25.74-31.07,42-40.52,17.06-9.93,41.39,10.19,54.3,19.4,16,11.41,33.87,23.93,54.6,20.08,17.93-3.33,31.57-16.88,50.65-16.67s35.88,20.46,54.7,13.67c-10.91,5.08-22.2-1.94-31.8-6.71-11.7-5.81-22.67-8.18-35.65-5.09-12.16,2.89-22.13,10.84-34.08,14.18-12.28,3.44-24.64.8-35.86-4.71C631.36,95.78,609.81,68.67,584.23,70c-23.82,1.24-29.78,43.73-54.77,43.73Z"/><path class="cls-1" d="M671.86,110.54c-29.22,0-50.6-24.71-76.3-34.87-15.46-6.12-24.79-4.67-36.13,7.16-8.19,8.54-19.48,25.42-32.32,26.64-10.74,1-20.64-13.85-26.33-21.27C493.37,78.52,485.5,64.06,471,68.68c-13.21,4.22-25.56,13.93-38.74,19.11-12.13,4.77-24.69,8.88-37.92,7.75,17.28-.93,32.84-5.45,49-12.6C452.25,79,460.13,72.75,469,69.12c11.38-4.64,19.5,2.15,26.19,10.92,7.51,9.84,19.68,32.68,34.53,28.5,19.14-5.39,26.4-34.51,46-37.23,19.3-2.67,40.64,15.41,55.73,24.55,16.19,9.8,34,17.79,53.2,12.69,20-5.32,34.79-17.23,56.68-12.14,16.14,3.74,30.51,17.46,47.51,11-17.74,9-37.45-10.6-55.27-11.91C711,93.84,693.85,110.54,671.86,110.54Z"/><path class="cls-1" d="M776.67,109c-17.35,0-32.17-12.57-49.71-13.5-19.64-1-34.85,10.39-53.66,12.66-37.18,4.5-63.06-30.5-98.19-34.59-18.56-2.15-29.29,19.76-43.78,28.31C513.74,112.23,501.41,90.36,490,79.63c-15.39-14.48-28.49-1.06-44.3,5.39-16.56,6.76-35.12,13.4-53.27,10.83C411,96,428.05,92,445.62,84.78c15.89-6.51,29-20,44.58-5.34,13.25,12.48,24.79,33.81,44.23,20,14.91-10.62,24.17-29.51,44.74-25.48,36.37,7.14,63.81,43.27,103.67,31.89,19.69-5.61,35.2-14.09,56.27-8.8,16.34,4.11,31.62,16.42,48.62,9.21A23.29,23.29,0,0,1,776.67,109Z"/><path class="cls-1" d="M773.75,108.37c-17.2,0-32.51-11.08-49.61-12.89-18.81-2-33,6.36-50.83,9.88C635.66,112.82,607,81.46,571.92,75.6c-18.33-3.06-27.5,11.27-41.66,20.4-15.63,10.08-25.62-.51-38.31-10.3-6.83-5.27-13.4-10.63-22.52-8.53-8.19,1.88-16,8-24,10.86-17.17,6.24-36.56,11.74-54.9,8.14,17.63,1.15,33.61-1.29,50.86-7,8.43-2.8,15.85-7.42,24-10.62,11.12-4.36,17.92.18,26.74,7,12.54,9.68,22.58,20.23,38,10.29,7.78-5,14.23-11.81,21.92-16.92,9.06-6,18.06-4.49,28.13-1.54,35.36,10.35,64.06,37.63,103,25.09,19.48-6.28,35.34-10.29,55.72-4.2,16.17,4.83,31.06,14,47.71,6.81A24.93,24.93,0,0,1,773.75,108.37Z"/><path class="cls-1" d="M770.52,107.92c-17.72,0-34-10.49-51.46-12.81-19.3-2.56-34.93,6.07-53.49,8.78-36.58,5.34-66-21.81-100.68-26.8-18-2.6-27.37,10.51-42.71,17.43-11.91,5.38-22-2.11-32.62-7.55-8.75-4.47-15.07-7.62-24.79-4.07-6.93,2.53-13.37,6.16-20.49,8.39-17.63,5.51-37.4,9.79-55.7,5.2a126.88,126.88,0,0,0,51.54-4.24c8.61-2.44,16.27-6.57,24.56-9.59,9.64-3.51,16.35-.34,25,4.09,13,6.64,22.21,13.22,36.19,5.48,7.84-4.34,14.86-11.06,23.19-14.45,8.52-3.47,18.27-.9,26.79,1.54,18.26,5.23,35,14.59,53.07,20.32,18.52,5.87,34.72,5.48,53.18-.12,20.6-6.26,37.4-6.5,58,.46,15.72,5.3,29.62,10.87,45.31,3.87A27.58,27.58,0,0,1,770.52,107.92Z"/><path class="cls-1" d="M766.9,107.56c-16.31,0-31.32-8.46-47-11.94-18.38-4.07-32.72.38-50.47,4.57-36,8.5-66.5-10.89-100.34-19.35C551,76.3,541.78,79.4,525.54,87.2c-7.62,3.66-13.74,6.38-22.31,4.81-7.26-1.32-14.33-3.73-21.55-5.28-15.11-3.26-27.55,5.19-42,8.64-17.24,4.12-35.72,6.7-53,1.43a126.13,126.13,0,0,0,52.94-1.67c13.37-3.22,26-11.76,40-9.16,8,1.5,15.72,4.33,23.72,5.8,10.09,1.84,17-2.31,25.92-6.68,17.51-8.54,29.19-8,48.28-2.14,17.74,5.48,34.75,13.49,53,17.36,19.18,4.07,35.12.38,53.73-4.38,19.3-4.94,36.59-1.1,55.12,5.2,15.52,5.27,30,8.86,44.94,1.53A30.84,30.84,0,0,1,766.9,107.56Z"/><path class="cls-1" d="M763.19,107.34c-16.45,0-31.42-8-47-12.06-16.09-4.23-29.8-2.36-45.7,1.55-36.45,9-65.93-4-100.77-13-17.69-4.57-31.51-4.77-48.86.82-12.43,4-22.63,4.19-35.61,4.37-34.29.48-65.58,20.6-100.51,8.09a123.48,123.48,0,0,0,54.53.82c16.29-3.35,30-9,46.84-9.17a133,133,0,0,0,40.42-6.19c19.23-5.77,37.14-1,55.88,4.62,18,5.43,35.92,12.14,54.87,13.35,16.35,1,30.84-4.19,46.61-7.15,33.94-6.38,67.31,25.15,99.22,8.08C777.32,105.64,770.23,107.34,763.19,107.34Z"/><path class="cls-1" d="M759.19,107.24c-16.23,0-30.77-7.4-45.92-12.17-16.78-5.29-31.39-3.81-48.28.06-34.08,7.81-62.73-.91-95.9-8.87-34.89-8.37-65-2.57-98.91,7-28,7.94-59.21,15.71-87.4,4.14,32.27,8.93,61.17,3.06,93.12-6,17.79-5.06,35.91-10.13,54.53-10.51S567,85.34,584.8,90.05c17.37,4.6,35.09,9.45,53.21,9,18.69-.42,36.33-9,55-8.28,30.83,1.2,58.76,27.44,88.87,9.47C775.45,105.24,767.24,107.24,759.19,107.24Z"/><path class="cls-1" d="M308.49,186.36c-19.75,0-30.76-21.36-35.17-37.76-6.32-23.47-7.55-48-14.1-71.51-4.73-17-10.45-46.2-26.38-56.8-18.39-12.23-37,13.9-45.39,27.07-12.32,19.36-20.19,41.1-30.4,61.56-6.67,13.36-19.42,38.32-38.36,28.24-19.47-10.35-17.83-38.55-21.06-57-2.51-14.29-15.21-44.91-35-31.3C47,59.56,55.38,95.37,34.42,100.14,14.83,104.61,16.46,67.28,0,62.83c16.8,1.33,18.23,51.84,39.66,34.08C54.35,84.76,47,47.05,70.88,46c27.58-1.26,27.26,41.34,30.36,59,3.52,20.08,21.16,47.9,41.82,25.92,18.32-19.5,25.37-50,38-73.2,8.07-14.79,27.64-49,49.21-39.19,9,4.12,13.66,14.87,17.25,23.45A303,303,0,0,1,261.86,86c6.48,26.2,5.18,57.88,19.41,81.47,14.82,24.59,40.87,22.11,57.76.82,17.3-21.81,21.68-53,43.82-71.17-13.12,14.1-21.12,30.37-29.69,47.89S331.16,186.36,308.49,186.36Z"/><path class="cls-1" d="M309.87,181.93c-39.65,0-38.94-69.38-45.59-95.18-4.78-18.57-10.23-44.33-23.8-58.7C224,10.61,204.71,32.39,195.1,46.23,183,63.68,175.18,83.62,166,102.64c-6.4,13.17-17,39.19-36,34.67-21.28-5.06-23.28-34.12-26.5-51.36-2.82-15.06-15.28-49.28-37.13-35C50.74,61.15,57.1,95.39,36.55,99.56,16.39,103.67,18.72,67.23,1.19,64c18.1.78,17.87,48,40,33.12C57.42,86.21,51,46.16,76.73,48c26.93,2,26.32,42,31.23,60.59,5,18.87,23.06,40.28,41.37,21.08,17.19-18,24.21-46.26,35.94-67.86,7.9-14.55,27.43-49.19,48.83-39.2,9.78,4.57,14.32,16.9,18.07,26.2a302.77,302.77,0,0,1,12.39,37.82c6.21,24.16,5.64,52.61,17.75,74.82,13.35,24.48,38.12,24.92,55.89,4.72,18.41-20.91,23.75-52.12,46.58-69.36-13.72,13.67-22.15,29.69-31.52,47-8.85,16.28-22.22,38.13-43.39,38.13Z"/><path class="cls-1" d="M311.38,177.51c-19.32,0-29.41-21.36-33.51-37.18-5.43-21-7.45-42.43-13.85-63.22-4.52-14.69-10.4-41.24-25.19-49.39-17.86-9.84-34.9,15-42.88,27.59-11.06,17.53-18.5,37-28.2,55.27-7,13.23-18.52,32.55-36.26,23.25-18-9.45-19.48-34.17-24.08-51.46-4-14.83-17.77-41.63-37.45-29.29-15.72,9.86-10.66,40.06-30,45.71S18.66,68.89,2.35,65.16c18.51.12,19.09,46.09,41.63,31.12,15.91-10.56,11.61-47.92,36.48-46.1,25.67,1.87,27.55,37.59,32.91,56,4.83,16.6,21.2,40.54,40,24.62,16.86-14.27,24.11-41.88,34-61,7.83-15,27.89-53.39,50.18-43.18,17.81,8.15,24.64,42.34,29.22,59,6.54,23.81,6,52.66,19,74.12,14.73,24.3,39.08,19.5,55.46-.45,16.18-19.72,23.74-47.87,45.4-62.82-13.78,12.69-22.65,27.75-32.38,44.09-9.16,15.37-22.54,36.89-42.95,36.89Z"/><path class="cls-1" d="M312.83,173.1c-20,0-29.48-23.08-33.29-39.26-4.93-20.9-7.87-41.77-15-62.15-4.41-12.6-10.91-38-26.36-41.76-17.63-4.3-33,20.79-40.25,33.11-11.18,18.9-33.9,94.05-66.1,64.65-14-12.83-15-33.69-21.55-50.42C104.45,62.47,87.43,43,70.83,57.33c-11.69,10.08-13.11,43.22-33.45,41.2-17.32-1.71-16.84-29-33.87-32.21C22.35,65.76,21,103.25,41.92,98S57.06,58.31,78.61,52.88c25.28-6.36,33.3,28.45,38.32,45.45,4.67,15.83,19.27,47.41,40.86,32.73,16.71-11.37,24.27-38.65,33.1-55.78,7.87-15.27,23-46.26,43.67-46.06,20.1.2,28.61,36.64,33.11,51.05,7.21,23.08,7.41,50,18.24,71.67,12.11,24.27,35.16,25.8,53.19,6.8s26.62-48.17,49.54-62.52c-14,11.51-23.12,25.78-33.18,41.19C346.06,151.8,332.45,173.1,312.83,173.1Z"/><path class="cls-1" d="M314.26,168.67c-18.16,0-27.52-20-31.51-34.91-5.07-18.91-7.65-38.11-14.12-56.72-4.38-12.61-11.28-39.37-26.83-43C225,30,210.23,53.61,203.11,65.36,191.32,84.83,169.72,156,137.2,125.24c-14.06-13.31-15.47-34.24-24-50.7-7.83-15-26.55-28.24-41.09-12.87-9.68,10.23-14.73,40.7-34.15,36-16-3.87-16.29-27.74-33.24-30.18,19-1.28,18.84,35,39.9,29.85,20.31-5,17-37.12,37.76-42.3,24.23-6,33.82,25.2,39.72,42,5.41,15.4,20.86,46.9,42.16,32.65,16.85-11.27,24.33-38.51,33.59-55.56,7.51-13.83,24.13-45.11,44.06-40.41,18.15,4.29,26,38.91,30.47,53.81,6.26,20.81,6.57,45.81,18.05,64.63,33.08,54.2,75.26-42.23,100.19-56.26-14.43,11.14-24.24,25-35.11,39.93-9.53,13.13-22.89,32.83-41.2,32.83Z"/><path class="cls-1" d="M315.71,164.25c-19.69,0-28.07-23.25-31.81-38.93-4.29-18-8-35.76-14.83-53-5-12.69-13-38.47-31.3-33.87-16,4-27.4,25.13-34.74,38.34-11.88,21.39-33.2,79.1-63.36,43-11.93-14.27-14.16-33.84-25-48.72-10.29-14.11-28.17-19.84-40.9-5.28C64.78,76,58.19,101.51,40,97,24.37,93.1,22.63,70.12,5.83,68.65c18.89-2,20.31,32.63,41,28.15C64.63,93,66.07,67.31,80.88,59.16,102.17,47.45,117.57,72.9,124.32,89c6.48,15.49,16.23,44.24,38.07,42.36,18.83-1.62,29.13-33.49,36.43-47.36,7.89-15,22.52-46,42.74-46.55,19.13-.51,27.64,33.3,32.26,47.06,7,20.81,7.5,46.39,19.58,65,31.53,48.67,73.45-41.14,99.11-54-14,9.31-24,21.82-34.5,35.21-9.95,12.65-24,33.45-42.3,33.45Z"/><path class="cls-1" d="M317.16,159.83c-16.85,0-25.52-18.49-29.46-32.21-5.26-18.31-8.75-36.55-16.15-54.26C266.22,60.61,258,36.86,240,43.16c-16,5.59-26.49,26-34.11,39.83s-14.08,32.45-26.57,42.54-27.23.94-35.68-9.83c-10.76-13.73-14.44-31.84-26-45s-29.26-15.87-41.48-2c-8.86,10.08-16.76,32-34,27.59C26.78,92.38,23.64,70.57,7,69.82c18.76-2.67,22,30.44,42.35,26.38C66,92.89,69.81,70.55,83,62.32c39.48-24.7,49.36,58.73,79.18,66.7,19.85,5.3,30.17-21.22,37.47-34.88,9.07-17,19.87-42.07,38.58-50.55,35.84-16.25,45.39,82.5,56.77,101,29.75,48.22,72.84-37.6,99.48-49.27-13.84,8.21-24.09,19.56-34.78,31.91C349.2,139.29,335,159.83,317.16,159.83Z"/><path class="cls-1" d="M318.51,155.4c-16.53,0-24.7-18.43-28.62-31.74C284.73,106.2,280.67,89,273,72.26c-5.27-11.5-13.16-31.07-29.26-25-14.82,5.55-25,24.34-32.38,37.24s-14.15,32-26.93,40.82c-13.45,9.28-29-3.23-37.08-13.85C132.74,92.19,111.32,38.26,79.9,70.22,70.45,79.84,62.62,98,46.46,95.92,29.92,93.78,25.28,71.07,8.14,71c18-3.24,23.4,26.6,42.13,24.88,15.94-1.47,22.21-20.8,33.42-29.42C122,37,139.42,116.51,166.11,126.53c20.63,7.75,30.95-16.88,39-31.31C214,79.14,223.76,58,240.48,48.57c33.34-18.88,45.46,68.05,53.58,86.11,25.86,57.52,73.83-29,102.31-39.71-14.62,7.67-25.56,18.89-37.18,31C348.85,136.71,335.06,155.4,318.51,155.4Z"/><path class="cls-1" d="M320,151c-21.22,0-26.77-27.68-31.32-43.21a215.22,215.22,0,0,0-13.34-34.6c-3.64-7.41-7.87-18-15.86-21.76C241,42.78,223.35,75,216.12,87.13c-8,13.44-18,41.51-37.13,39.71-35.92-3.39-45.07-81-86.92-61.12-14.74,7-21.64,28.87-39.67,29.86-18.57,1-25-25-43.1-23.43C26.4,68.41,34,94.87,50.9,95.27c17.13.41,25-19.44,37.38-27.62,37.06-24.42,55,40.74,78.89,54.64,20,11.66,30.7-4.64,40.12-20.47,9.8-16.46,19.07-37.63,35.87-48.26,33.8-21.39,45.39,66,56.27,83.41,13.17,21.05,31.16,12.84,46.21-.8,15.9-14.4,31.54-34.82,52.67-41.52-15.12,6.92-26.66,17.62-39,29.19C349.05,133.51,335.49,151,320,151Z"/><path class="cls-1" d="M321.4,146.57c-19.67,0-25.36-24.88-30-39.53a199.84,199.84,0,0,0-13.18-31.69c-3.48-6.66-7.87-16.68-15.29-20-18.16-8.08-35.77,24.16-43.1,36.16C210.33,107,200.23,132,177.91,123.26,149.28,112.09,131,46.13,92.21,69.8c-13.3,8.11-22.8,27.44-40.9,25C35.16,92.7,27.45,71.15,10.46,73.32c16.61-4.28,26,20.07,41.93,21.37S77.73,80.13,88.84,71.83c36-26.91,56.92,28.48,79.37,45.46,6.55,5,16.38,9.92,24.85,7.2,8.24-2.64,13.4-12,17.77-18.83,10.33-16.09,19.1-35.9,35.16-47.26,31.8-22.49,44.75,55.13,54.19,72.26,4.52,8.2,12.35,16.15,22.45,15.59,10.38-.57,18.84-9.67,26.22-16,15.22-13,31.38-30.78,51.39-35.93-13.77,5.74-24.91,13.77-36.56,23.68C352.63,127.42,337.18,146.57,321.4,146.57Z"/><path class="cls-1" d="M322.84,142.15c-19.66,0-24.89-25.66-30.27-39.9-4.78-12.64-16.45-47.73-35-43.43-33.08,7.68-37.6,82.64-78.54,60.3-27-14.72-48.24-71.05-86.19-45.4C81,81.76,70.65,96,54.47,94.32,37.94,92.57,28.84,71.6,11.62,74.48,27.36,69.82,38.2,91,52.58,93.69,67.23,96.43,78,85.07,88.4,76.82c34.86-27.67,56.61,12.89,79.51,33.69,12.55,11.41,29.55,19.2,42.27,4.19,11.81-14,18.9-31.3,31.54-44.68,5.13-5.43,12.29-12.5,20.39-11.92,9.32.67,14.41,11,18.47,18.12,9.31,16.35,12.75,35.58,22.26,51.53,13.15,22,30.29,12,46.17-.63C364.62,114.69,382,98,402.17,94c-14.1,4.93-25.7,12.34-37.87,21.61-11.07,8.43-26.52,26.51-41.46,26.51Z"/><path class="cls-1" d="M324.35,137.74c-18.26,0-23.73-23.16-29.28-36.26C289.94,89.39,278.8,59,261.61,62.9c-33.76,7.74-36.24,78.53-78.81,53.32-25.92-15.35-47.52-61.65-83.72-42.17-13.63,7.34-24.8,21.66-42,19.72-16.29-1.85-27.24-22-44.3-18.12,15-5.05,26.81,13.28,40,17C67.47,96.77,79.9,87.11,91,79.06c33.33-24.09,55.16,5.2,78.67,26.69,10.77,9.84,29.4,23.41,43.31,11.59,13.68-11.61,20.5-30.64,33-43.6,35.37-36.66,46,34.4,61.63,54.13,15.13,19,31.51,3.16,46.19-7.33,15-10.71,31.51-24.19,50.27-26.82-12.78,3.63-23.91,9.16-35.27,16.82-7.54,5.09-15,10.23-22.29,15.68-6.54,4.9-13.47,11.52-22.2,11.52Z"/><path class="cls-1" d="M325.76,133.33c-16.51,0-22.37-20.31-28-32.11-4.92-10.31-15.35-35-29.5-34.73-16,.35-29.36,25.31-37.45,36.32-4.45,6.06-9.68,14.82-17.35,17.29s-17.33-1.43-24-5c-29.29-15.92-51.9-59-90.07-37.16C86.77,85.13,74.92,95.22,59.24,93.16,43,91,31,72.18,13.94,76.81c15.48-5.81,29,12.54,43.14,15.62,14.65,3.17,27.06-5.33,38.8-12.66,35-21.8,57,8,83.12,27.94,11.56,8.84,28.71,18.9,41.53,7.29C234,102.83,240.93,84.94,255,73.1c29.79-25.08,41.73,35.77,55.25,51.53,14.87,17.32,30.73,1.36,45-7.88,15.21-9.82,32.2-21.8,50.77-23.34-13.86,3-25.91,8.52-38.41,16-11.41,6.87-28.05,23.9-41.87,23.9Z"/><path class="cls-1" d="M327.18,128.92c-27.63,0-32.12-71.68-62.22-55.85-15,7.9-23.49,25.56-34.61,37.61-11.89,12.88-26.28,8.26-40-.08C161.51,93,138.58,61.19,101.92,80.37c-14.24,7.44-28.23,16-45,11.15C42.7,87.41,30.79,73.12,15.1,78,26,73.44,36.66,81.19,45.84,86.14c9,4.85,17.58,7.73,28,6C92.4,89.05,106.09,73,125.47,73.33c20.73.33,36.46,15.92,51.86,27.77,14.33,11,35.73,26.46,51.66,10.65,11.62-11.52,24-39.78,42.44-41.34C288.7,68.94,300.23,101.35,307,113c4.08,7.06,10,14.79,18.84,15.55,9.47.81,17.66-7.39,25-12,16.59-10.45,37-22.94,57.13-23.46-13.69,2.14-25.86,6.63-38.46,13.26-7.56,4-15,8.08-22.18,12.78-6.09,4-12.41,9.78-20.16,9.78Z"/><path class="cls-1" d="M328.6,124.51c-26.65,0-32.54-65.77-62.67-45.4C252.75,88,245.65,103,233.51,112.91c-13.45,10.93-32.25-.15-44.51-8C174.77,95.79,161.7,84,145.45,78.5c-16.64-5.62-30.08-1.07-45.23,6.33-12.17,6-25.58,9.92-39.13,6.52C46,87.57,32.41,73.46,16.26,79.15c18.05-8.23,37.5,13.63,56.3,13.22,19.52-.42,33.91-15.06,52.81-16.81,20.95-1.94,38.34,11.61,54.53,22.88,13.43,9.35,35.58,26.26,52,15.42,14.85-9.81,22.16-33.42,40.47-38.61,17.89-5.06,30.3,26.23,38.53,37.46,15.5,21.14,31,5,48.65-4,15.48-7.86,32.63-16.5,50.39-16a114.82,114.82,0,0,0-36.5,9.72,226.4,226.4,0,0,0-23.51,11.8C343.49,118.13,336.53,124.51,328.6,124.51Z"/><path class="cls-1" d="M330,120.11c-26.74,0-32.32-58.33-63-34.81-11.14,8.54-20.69,27-34.75,30.44-14.48,3.52-32.77-8.75-44.37-15.82C174,91.46,160.06,81.58,143.77,78.55c-16.72-3.11-29.48,4.06-44.57,9.73a59.47,59.47,0,0,1-42.95.07c-12.81-5-25-13.19-38.83-8,16.88-8.39,35,8.89,51.39,11.34,19.89,3,34.46-7.82,52.7-12.57,20.92-5.46,39.78,4.23,57.22,14.89,14,8.54,34,24.26,51.8,21.82,18.08-2.49,26.67-27.88,43-35.22s29.32,16,37.74,26.84c5.47,7,12.31,13.82,22,12C342,117.85,351,109.88,359,106.2c16.2-7.45,34.64-15.27,52.8-13.72-12.5,1-23.91,2.51-36.17,7.17a217.58,217.58,0,0,0-23,9.9c-6.93,3.6-14.48,10.56-22.73,10.56Z"/><path class="cls-1" d="M331.37,115.71c-12.68,0-21.37-14.66-29.8-22.25-5.63-5.07-11.82-11.78-20.09-10.15-6.29,1.23-12.49,7.21-17.12,11.19-9.7,8.35-17.83,20.67-31.78,19.8-15.64-1-30.5-10.13-43.89-17.41S161.32,81.79,145.83,80c-15.91-1.8-28.28,5-43,9.47s-30,3.5-44.51-1.82c-13.24-4.87-25.91-12-39.76-6.21,16.51-8.89,34.68,5.86,50.67,9.29,21.35,4.57,36.2-4.53,56-9.56,39.07-9.9,66.44,25.57,102.25,32.12,20.05,3.67,29.42-14.73,44.15-25,18.25-12.77,29.71,4.7,42.25,17.33,15.72,15.84,25.49,6.25,42.65-1.24,17.37-7.58,38-14.9,57.2-12.21a120.67,120.67,0,0,0-41.61,6.64,161.54,161.54,0,0,0-23.3,9.52c-5.5,2.87-11,7.38-17.5,7.38Z"/><path class="cls-1" d="M243.61,112.93c-40.92,0-71.66-39.84-114.46-29.35C107.81,88.81,92.1,96,69.54,90c-16.85-4.5-32.49-14.72-49.8-7.37C35.8,73.33,54,85.6,69.61,89.77c20.51,5.48,36.05.33,55.55-5.34,39.54-11.49,68.49,18,104.81,26.49,9.22,2.16,16,2.79,24.11-2.48,7.68-5,14.15-11.68,21.92-16.59,15.33-9.71,25.77.55,38.31,10.17,6.8,5.21,13.48,10.44,22.53,8.41,8.17-1.85,16-7.81,24-10.64,17.19-6.1,36.58-11.49,54.88-7.93-17.5-1.12-33.7,1.26-50.84,6.84-14.38,4.69-28.66,17.69-43.55,8.86-10.19-6-22.61-22.74-35.77-20.2-15.75,3-25.72,25.57-41.94,25.57Z"/><path class="cls-1" d="M250.66,111.36c-42.58,0-75.36-36.62-119.72-25.12-22,5.71-38.71,9.47-61.17,2.57-16.8-5.16-32-12.38-48.87-5,14.68-9.13,32.06-.67,46.65,4.06,20.66,6.68,37.6,5.6,58.12-.39C164.86,76,194.12,97.65,230.52,107.94c7.17,2,16.13,4.63,23.61,2.71,8.14-2.1,15.38-8.87,22.5-13.17,16-9.64,24.18-4.79,39.58,3,7,3.55,13.68,7.44,21.83,5.56s15.87-7,23.92-9.48c17.7-5.38,37.35-9.58,55.68-5a127.48,127.48,0,0,0-47.48,3c-14.72,3.68-31.1,16.11-46.16,10.07-9.85-4-20.61-13.64-31.51-13.61-15.83,0-26.22,20.3-41.83,20.3Z"/><path class="cls-1" d="M257.8,109.8c-42.41,0-77.17-32.09-120.9-22-11,2.53-21.61,6.68-33,6.63-10.34,0-20.55-2.65-30.35-5.72C55.9,83.19,39.51,76.63,22.07,85c13.72-9.12,31-3.36,45.17,1.38,17.53,5.87,34.34,9.88,52.69,5.66,17.88-4.1,33.17-8.76,51.7-5.6s35.67,11,53.38,16.73c18.46,6,32.35,8.63,50.12.08,7.77-3.74,15.69-8.86,24.6-8.13,6.89.56,14,3.27,20.66,4.91,9.64,2.36,15.35,2.94,24.74-.5A188.83,188.83,0,0,1,364.73,93c17.74-4.41,37-7.16,54.84-1.8a120.15,120.15,0,0,0-45.05-.06c-12.58,2.38-24.37,9-36.72,11.09-12.94,2.19-25.39-5.88-38.1-6.92-15.41-1.26-26.91,14.45-41.9,14.45Z"/><path class="cls-1" d="M264.77,108.24c-21.59,0-42.35-8.6-62.79-14.49-22.49-6.49-42.86-8.24-65.69-2.76-21.42,5.15-37.87,4.62-58.89-2.32-18.85-6.23-35.85-11.56-54.17-2.52,14.67-10.38,33.56-4.56,49,.5C89,92.15,104.64,97.16,122.4,94c15.79-2.83,30.29-8,46.64-7,19,1.21,36.88,7.84,54.93,13.2,16.79,5,34.53,10.35,51.92,5.7,7.86-2.09,15.74-5.89,23.85-6.93,6.64-.85,13.76-.12,20.41-.2,34.5-.39,66.31-20.19,101.35-7.83-13.92-2.8-26.9-4.73-41.58-3-15.19,1.85-29.24,8.48-44.14,10.47-10.44,1.38-21.21.15-31.69.58C290.55,99.57,278.33,108.24,264.77,108.24Z"/><path class="cls-1" d="M273.62,106.7c-22.37,0-43.76-7.23-65.26-12.46-24.08-5.84-45.14-6.36-69.3-.94-24,5.39-41.33,1-64-6.8-17.25-6-34.56-8.61-50.67.81,27-20.27,60.68,8.06,88.86,9.17,17.95.71,34.92-7.17,52.76-8,18.15-.8,35.94,3.74,53.35,8.29,17,4.46,34.31,9.29,52.05,9.62,19.24.36,38-4.47,56.42-9.56,30.64-8.46,64.54-18.81,95.6-6.24-24.05-6.35-46.17-6.13-70.8-.19-26.11,6.3-51.81,16.26-79,16.26Z"/></g></g></g></svg>